<?xml version="1.0" standalone="no"?>
<!DOCTYPE svg PUBLIC "-//W3C//DTD SVG 20010904//EN"
 "http://www.w3.org/TR/2001/REC-SVG-20010904/DTD/svg10.dtd">
<svg version="1.0" xmlns="http://www.w3.org/2000/svg"
 width="208.000000pt" height="242.000000pt" viewBox="0 0 208.000000 242.000000"
 preserveAspectRatio="xMidYMid meet">

<g transform="translate(0.000000,242.000000) scale(0.100000,-0.100000)"
fill="#000000" stroke="none">
<path d="M885 2353 c-86 -13 -225 -64 -225 -83 0 -34 301 -95 420 -85 150 12
330 62 330 90 0 9 -37 26 -97 46 -91 30 -109 33 -248 35 -82 1 -163 0 -180 -3z"/>
<path d="M535 2223 c-50 -26 -146 -106 -219 -183 -69 -71 -69 -71 -49 -91 21
-22 233 -110 270 -112 26 -2 34 8 82 117 17 37 51 101 76 141 25 39 45 76 45
82 0 9 -143 64 -165 63 -5 -1 -23 -8 -40 -17z"/>
<path d="M1460 2233 c-57 -20 -130 -57 -130 -66 0 -6 18 -38 40 -71 21 -34 60
-105 85 -158 35 -75 50 -98 65 -98 24 0 155 48 233 85 34 16 57 34 57 43 0 23
-163 180 -239 230 -61 41 -79 46 -111 35z"/>
<path d="M784 2138 c-52 -56 -164 -261 -164 -300 0 -26 25 -35 159 -57 128
-22 171 -25 209 -15 22 6 22 7 20 187 l-3 181 -28 7 c-15 4 -60 10 -100 14
-67 6 -73 5 -93 -17z"/>
<path d="M1132 2150 c-29 -4 -56 -11 -60 -15 -11 -11 -15 -297 -5 -335 l10
-35 79 2 c80 2 272 37 286 51 17 17 -33 127 -115 260 l-52 82 -45 -1 c-25 -1
-69 -5 -98 -9z"/>
<path d="M199 1889 c-27 -27 -69 -119 -104 -229 -22 -66 -28 -106 -29 -180
l-1 -95 90 -8 c115 -10 347 1 357 17 4 6 8 52 8 101 0 50 7 130 15 179 9 59
11 94 4 102 -5 6 -37 22 -72 34 -34 12 -101 40 -148 61 -48 22 -89 39 -93 39
-3 0 -16 -10 -27 -21z"/>
<path d="M1770 1884 c-30 -14 -95 -41 -144 -60 -49 -18 -94 -38 -99 -43 -6 -6
-4 -43 7 -108 9 -55 16 -143 16 -196 l0 -97 234 0 233 0 -4 53 c-8 91 -43 248
-70 311 -36 87 -85 166 -103 166 -8 0 -40 -12 -70 -26z"/>
<path d="M593 1733 c-15 -23 -18 -51 -18 -188 l0 -160 111 -7 c60 -4 157 -4
215 0 l104 7 0 160 0 160 -50 7 c-27 4 -113 16 -190 28 -77 11 -143 20 -147
20 -4 0 -16 -12 -25 -27z"/>
<path d="M1300 1740 c-52 -10 -125 -21 -161 -25 -64 -7 -67 -8 -73 -37 -8 -40
-8 -227 0 -267 l7 -31 220 0 220 0 -6 133 c-4 72 -13 157 -20 187 -12 55 -12
55 -52 57 -22 1 -83 -7 -135 -17z"/>
<path d="M80 1296 c0 -37 168 -153 264 -181 43 -13 61 -35 27 -35 -32 0 -33
-16 -5 -72 117 -233 358 -408 580 -420 l59 -3 8 125 c4 69 13 138 19 153 26
65 159 137 253 137 50 0 96 11 92 23 -2 6 -21 16 -43 24 -21 7 -49 25 -61 40
-24 29 -76 41 -184 42 l-66 1 -6 82 c-4 49 -12 85 -19 90 -7 4 -217 8 -465 8
-383 0 -453 -2 -453 -14z m1148 -224 c2 -7 -3 -12 -12 -12 -9 0 -16 7 -16 16
0 17 22 14 28 -4z"/>
<path d="M1295 1301 c-69 -10 -225 -93 -225 -120 0 -5 37 -12 83 -16 98 -7
136 -20 147 -51 6 -15 25 -27 58 -38 66 -22 102 -56 102 -97 0 -28 -2 -31 -22
-24 -81 26 -222 5 -302 -46 -64 -40 -76 -72 -76 -208 0 -130 9 -161 45 -161
93 0 287 67 381 130 65 45 175 151 230 222 77 99 154 295 154 390 l0 28 -262
-1 c-145 -1 -285 -5 -313 -8z"/>
<path d="M80 1151 c0 -18 52 -156 82 -216 67 -134 214 -294 346 -379 37 -24
123 -70 192 -104 69 -33 142 -75 163 -92 37 -32 100 -118 127 -175 l14 -30 6
55 c8 64 0 239 -10 245 -4 3 -53 14 -109 24 -182 36 -320 109 -451 241 -89 89
-148 177 -200 297 -32 76 -43 91 -76 109 -50 28 -84 38 -84 25z"/>
</g>
</svg>
