<?xml version="1.0" standalone="no"?>
<!DOCTYPE svg PUBLIC "-//W3C//DTD SVG 20010904//EN"
 "http://www.w3.org/TR/2001/REC-SVG-20010904/DTD/svg10.dtd">
<svg version="1.0" xmlns="http://www.w3.org/2000/svg"
 width="225.000000pt" height="224.000000pt" viewBox="0 0 225.000000 224.000000"
 preserveAspectRatio="xMidYMid meet">

<g transform="translate(0.000000,224.000000) scale(0.100000,-0.100000)"
fill="#000000" stroke="none">
<path d="M1013 2169 c-212 -27 -440 -155 -558 -312 -83 -110 -149 -261 -176
-404 -7 -37 -10 -113 -7 -185 4 -104 9 -136 35 -210 66 -188 181 -339 343
-447 158 -106 306 -148 484 -138 150 8 269 54 302 119 22 42 15 138 -12 176
-80 110 -354 104 -354 -8 0 -26 22 -60 38 -60 3 0 1 5 -6 12 -20 20 -14 45 16
68 23 18 37 21 86 18 51 -4 63 -9 87 -36 69 -77 10 -189 -117 -228 -56 -17
-192 -18 -266 -3 -93 19 -215 86 -289 159 -107 105 -149 208 -149 366 0 356
261 681 660 822 150 53 234 65 422 60 92 -2 168 -2 168 -1 0 8 -171 128 -211
149 -71 36 -204 71 -312 83 -53 6 -102 10 -109 10 -7 -1 -41 -5 -75 -10z"/>
<path d="M1415 1873 c-359 -57 -738 -326 -840 -596 -58 -154 -56 -325 5 -455
58 -124 194 -230 343 -269 73 -18 213 -13 269 10 99 41 129 153 54 202 -45 30
-136 17 -136 -19 0 -8 2 -8 8 0 21 32 87 11 98 -30 15 -63 -59 -120 -156 -119
-106 1 -207 48 -254 120 -41 62 -62 163 -49 239 17 98 48 149 158 260 88 89
112 107 195 147 136 66 222 81 450 82 225 0 326 -22 398 -88 l22 -20 0 24 c0
52 -31 208 -55 279 -61 180 -138 230 -360 235 -66 2 -133 1 -150 -2z"/>
<path d="M485 346 c-52 -23 -78 -60 -83 -119 -7 -87 31 -138 115 -158 113 -25
210 70 189 184 -15 83 -133 132 -221 93z m125 -11 c57 -30 78 -120 44 -191
-23 -47 -50 -64 -104 -64 -48 1 -66 10 -93 50 -22 31 -23 120 -2 160 28 55 98
75 155 45z"/>
<path d="M1848 338 c-53 -30 -72 -72 -66 -142 6 -71 39 -110 105 -124 120 -26
220 60 199 171 -19 100 -144 150 -238 95z m143 -4 c58 -29 77 -130 38 -194
-30 -49 -48 -59 -100 -60 -35 0 -52 6 -72 24 -63 58 -51 192 21 230 35 20 76
20 113 0z"/>
<path d="M160 210 c0 -133 1 -140 20 -140 18 0 20 7 20 73 l1 72 32 -35 c18
-19 46 -52 63 -73 22 -27 38 -38 53 -35 18 3 13 12 -44 73 -35 39 -64 75 -65
80 0 6 25 35 55 65 30 29 52 56 49 59 -2 3 -36 -26 -74 -64 l-70 -69 0 67 c0
60 -2 67 -20 67 -19 0 -20 -7 -20 -140z"/>
<path d="M791 350 c-1 -3 -10 -66 -21 -140 -11 -74 -20 -136 -20 -137 0 -2 7
-3 15 -3 11 0 15 13 16 53 1 28 4 77 8 107 l6 55 27 -45 c14 -25 39 -72 55
-104 l30 -59 54 101 c30 56 57 96 61 90 3 -7 10 -54 13 -105 7 -84 9 -93 27
-93 17 0 20 5 15 29 -4 17 -12 80 -18 140 -7 61 -15 111 -18 111 -3 0 -30 -45
-59 -100 -29 -55 -57 -102 -62 -105 -5 -3 -31 36 -59 87 -52 98 -69 126 -70
118z"/>
<path d="M1140 210 c0 -133 1 -140 20 -140 19 0 20 7 20 140 0 133 -1 140 -20
140 -19 0 -20 -7 -20 -140z"/>
<path d="M1260 211 c0 -87 4 -141 10 -141 6 0 10 43 10 110 0 61 4 110 8 110
5 0 52 -49 106 -110 54 -60 100 -110 102 -110 2 0 4 63 4 140 0 165 -18 193
-22 35 l-3 -106 -94 103 c-52 57 -101 104 -108 106 -10 3 -13 -26 -13 -137z"/>
<path d="M1590 210 c0 -118 2 -140 15 -140 12 0 15 14 15 70 l0 70 50 0 c28 0
50 5 50 10 0 6 -22 10 -50 10 l-50 0 0 56 0 56 55 -4 c30 -3 55 -1 55 4 0 4
-31 8 -70 8 l-70 0 0 -140z"/>
</g>
</svg>
