<?xml version="1.0" standalone="no"?>
<!DOCTYPE svg PUBLIC "-//W3C//DTD SVG 20010904//EN"
 "http://www.w3.org/TR/2001/REC-SVG-20010904/DTD/svg10.dtd">
<svg version="1.0" xmlns="http://www.w3.org/2000/svg"
 width="203.000000pt" height="248.000000pt" viewBox="0 0 203.000000 248.000000"
 preserveAspectRatio="xMidYMid meet">

<g transform="translate(0.000000,248.000000) scale(0.100000,-0.100000)"
fill="#000000" stroke="none">
<path d="M775 2454 c-115 -21 -209 -50 -300 -94 -74 -35 -82 -42 -106 -92 -35
-70 -95 -149 -144 -189 -35 -27 -127 -76 -176 -92 -41 -14 -37 -541 7 -817 59
-374 197 -643 429 -839 128 -108 274 -199 448 -280 l85 -39 139 68 c524 258
752 576 833 1165 14 99 25 602 15 680 -4 39 -12 58 -23 62 -131 43 -239 136
-307 262 -36 67 -46 78 -95 103 -78 39 -220 84 -325 102 -113 20 -369 20 -480
0z m323 -11 c-43 -2 -113 -2 -155 0 -43 1 -8 3 77 3 85 0 120 -2 78 -3z m-260
-10 c-10 -2 -26 -2 -35 0 -10 3 -2 5 17 5 19 0 27 -2 18 -5z m390 0 c-10 -2
-26 -2 -35 0 -10 3 -2 5 17 5 19 0 27 -2 18 -5z m-455 -10 c-7 -2 -19 -2 -25
0 -7 3 -2 5 12 5 14 0 19 -2 13 -5z m510 0 c-7 -2 -19 -2 -25 0 -7 3 -2 5 12
5 14 0 19 -2 13 -5z m-556 -9 c-3 -3 -12 -4 -19 -1 -8 3 -5 6 6 6 11 1 17 -2
13 -5z m606 -1 c-7 -2 -19 -2 -25 0 -7 3 -2 5 12 5 14 0 19 -2 13 -5z m-646
-9 c-3 -3 -12 -4 -19 -1 -8 3 -5 6 6 6 11 1 17 -2 13 -5z m708 -4 c13 -5 14
-9 5 -9 -8 0 -24 4 -35 9 -13 5 -14 9 -5 9 8 0 24 -4 35 -9z m-794 -21 c-30
-10 -56 -17 -58 -15 -5 5 77 34 97 34 8 1 -9 -8 -39 -19z m390 -6 c-12 -20
-14 -14 -5 12 4 9 9 14 11 11 3 -2 0 -13 -6 -23z m37 -4 c-3 -8 -7 -3 -11 10
-4 17 -3 21 5 13 5 -5 8 -16 6 -23z m472 -5 c23 -9 39 -18 37 -20 -2 -3 -24 4
-48 15 -54 24 -45 27 11 5z m-474 -49 l18 -55 64 0 c62 0 64 -1 49 -18 -10
-10 -15 -21 -12 -24 3 -3 -3 -11 -12 -19 -16 -13 -17 -12 -4 4 18 23 6 22 -29
-3 l-29 -20 20 -57 c23 -68 23 -64 2 -56 -16 6 -17 5 -3 -13 14 -18 14 -18 -2
-5 -10 7 -15 17 -13 22 3 4 -11 19 -32 33 -33 23 -39 24 -58 12 -11 -8 -19
-19 -18 -24 1 -6 -5 -16 -15 -24 -15 -12 -16 -11 -3 5 16 21 -1 23 -19 2 -7
-8 -9 -15 -5 -15 4 0 2 -7 -5 -15 -7 -8 -17 -15 -23 -15 -6 0 -2 7 9 15 10 8
14 15 7 15 -8 0 -6 17 8 57 14 42 16 59 8 70 -17 20 -34 16 -18 -4 11 -16 11
-16 -1 -5 -8 7 -15 17 -15 23 0 5 -13 20 -30 34 l-30 24 66 1 65 0 18 55 c9
30 19 55 21 55 2 0 12 -25 21 -55z m-516 30 c-14 -8 -29 -14 -35 -14 -5 0 1 6
15 14 14 8 30 14 35 14 6 0 -1 -6 -15 -14z m1076 -21 c18 -14 18 -14 -6 -3
-31 14 -36 19 -24 19 6 0 19 -7 30 -16z m-1146 -7 c0 -2 -10 -12 -22 -23 l-23
-19 19 23 c18 21 26 27 26 19z m525 -25 c-5 -18 -16 -21 -85 -24 -43 -2 -76 0
-73 5 2 4 36 7 75 7 62 0 70 2 75 20 3 12 8 19 10 16 3 -2 2 -13 -2 -24z m680
-32 c14 -27 23 -50 20 -50 -2 0 -16 23 -30 50 -14 28 -23 50 -20 50 2 0 16
-22 30 -50z m-465 16 c14 -2 -10 -4 -52 -5 -43 0 -78 2 -78 7 0 6 70 6 130 -2z
m30 -20 c0 -2 -12 -11 -27 -20 l-28 -17 24 20 c23 21 31 25 31 17z m-369 -23
c13 -16 12 -17 -3 -4 -10 7 -18 15 -18 17 0 8 8 3 21 -13z m-488 -54 c-10 -17
-26 -38 -37 -47 -10 -9 -4 4 15 31 37 53 49 62 22 16z m1407 -79 c30 -31 66
-64 80 -73 22 -16 22 -16 -8 0 -39 21 -133 117 -151 153 l-12 25 18 -25 c9
-14 42 -50 73 -80z m-657 70 c-3 -12 -8 -19 -11 -16 -5 6 5 36 12 36 2 0 2 -9
-1 -20z m-43 -96 c0 -3 -13 4 -28 15 -23 16 -32 18 -42 8 -12 -10 -12 -9 -1 5
13 17 15 17 42 -3 16 -11 29 -23 29 -25z m-760 33 c0 -2 -10 -12 -22 -23 l-23
-19 19 23 c18 21 26 27 26 19z m833 -47 c3 -11 1 -18 -4 -14 -5 3 -9 12 -9 20
0 20 7 17 13 -6z m-912 -20 c-19 -16 -63 -42 -97 -57 l-63 -27 -4 -66 -3 -65
-2 70 -2 70 49 18 c27 9 71 32 97 51 61 42 70 44 25 6z m742 -27 c-7 -2 -21
-2 -30 0 -10 3 -4 5 12 5 17 0 24 -2 18 -5z m122 -3 c13 -6 2 -7 -30 -3 -27 3
-52 7 -54 9 -9 8 65 2 84 -6z m-270 -10 c-11 -5 -36 -8 -55 -8 l-35 1 40 7
c57 10 74 10 50 0z m92 4 c-3 -3 -12 -4 -19 -1 -8 3 -5 6 6 6 11 1 17 -2 13
-5z m273 -4 c11 -8 7 -9 -15 -4 -37 8 -45 14 -19 14 10 0 26 -5 34 -10z m715
-8 c-3 -3 -11 0 -18 7 -9 10 -8 11 6 5 10 -3 15 -9 12 -12z m-1006 -21 c13
-24 5 -31 -39 -31 -49 0 -82 33 -42 43 41 11 72 6 81 -12z m101 -1 c10 -18 8
-20 -28 -20 -36 0 -62 14 -62 32 0 4 18 8 40 8 29 0 42 -5 50 -20z m90 16 c0
-2 3 -12 6 -21 6 -14 0 -16 -37 -13 -32 2 -45 8 -47 21 -3 14 4 17 37 17 23 0
41 -2 41 -4z m93 -18 l22 -23 -33 -3 c-32 -3 -72 19 -72 40 0 18 61 7 83 -14z
m145 15 c-10 -2 -26 -2 -35 0 -10 3 -2 5 17 5 19 0 27 -2 18 -5z m-56 -15 c23
-19 30 -48 12 -48 -29 0 -84 29 -84 44 0 20 49 22 72 4z m103 2 c3 -6 -1 -7
-9 -4 -18 7 -21 14 -7 14 6 0 13 -4 16 -10z m-702 -7 c-7 -2 -19 -2 -25 0 -7
3 -2 5 12 5 14 0 19 -2 13 -5z m127 -13 c6 -11 7 -20 2 -20 -5 0 -22 -2 -38
-5 -37 -7 -78 20 -54 35 27 17 78 12 90 -10z m1190 -5 c0 -14 -2 -25 -4 -25
-2 0 -6 11 -8 25 -3 14 -1 25 3 25 5 0 9 -11 9 -25z m-620 -5 c24 -24 26 -40
4 -40 -30 0 -73 31 -74 53 0 15 51 6 70 -13z m53 13 c-7 -2 -19 -2 -25 0 -7 3
-2 5 12 5 14 0 19 -2 13 -5z m-722 -22 l24 -19 -30 -7 c-16 -4 -34 -8 -40 -10
-14 -3 -45 14 -45 25 0 7 41 27 61 29 4 1 17 -8 30 -18z m764 9 c3 -6 -1 -7
-9 -4 -18 7 -21 14 -7 14 6 0 13 -4 16 -10z m-905 -14 c-68 -26 -75 -27 -40
-7 19 11 44 20 55 20 12 0 7 -5 -15 -13z m682 -5 c18 -5 60 -15 93 -21 33 -7
81 -21 107 -31 26 -11 51 -18 55 -17 4 1 28 -11 53 -27 25 -16 46 -30 47 -30
6 -3 -35 -74 -55 -95 -12 -13 -22 -27 -22 -32 0 -4 -9 -12 -20 -18 -16 -9 -37
-5 -98 16 -42 15 -117 33 -167 40 -123 19 -382 18 -465 -2 -36 -8 -83 -18
-105 -23 -22 -4 -50 -13 -62 -19 -12 -7 -38 -12 -57 -12 -33 0 -36 3 -47 43
-6 23 -16 58 -23 77 -11 34 -11 36 22 57 18 13 42 23 53 23 12 0 35 6 52 13
67 29 197 61 282 70 61 7 325 -2 357 -12z m193 5 c38 -16 67 -56 40 -56 -16 0
-75 27 -75 34 0 3 -3 11 -6 20 -8 20 -2 20 41 2z m78 -3 c-7 -2 -19 -2 -25 0
-7 3 -2 5 12 5 14 0 19 -2 13 -5z m-909 -22 c17 -18 16 -19 -18 -31 -26 -8
-41 -8 -56 0 -27 14 -26 19 13 35 41 18 41 18 61 -4z m965 5 c15 -8 34 -23 42
-33 13 -17 13 -17 -6 -2 -11 9 -33 24 -50 32 -16 9 -26 16 -22 17 4 0 20 -6
36 -14z m-7 -22 c26 -14 65 -70 55 -81 -8 -7 -107 58 -117 77 -6 10 -10 22
-10 25 0 8 36 -3 72 -21z m-1149 -22 c-13 -10 -23 -32 -26 -52 l-4 -35 -1 37
c-2 28 3 41 20 52 30 21 38 20 11 -2z m91 12 c24 -9 19 -22 -14 -39 -30 -16
-70 -13 -70 5 0 9 47 39 62 40 3 0 13 -3 22 -6z m1493 -311 c-1 -60 -3 -11 -3
107 0 118 2 167 3 108 2 -60 2 -156 0 -215z m-359 262 c-3 -3 -9 2 -12 12 -6
14 -5 15 5 6 7 -7 10 -15 7 -18z m-1191 -27 c19 -21 37 -68 27 -68 -3 0 -18 7
-34 15 -23 12 -30 22 -30 45 0 36 10 38 37 8z m1171 -95 c-7 -14 -18 -28 -25
-30 -29 -10 -17 82 14 105 16 12 18 10 21 -17 2 -17 -3 -43 -10 -58z m-1219
63 c-10 -9 -89 -46 -89 -41 0 6 72 44 84 45 5 0 7 -2 5 -4z m-342 -158 c-2
-29 -3 -6 -3 52 0 58 1 81 3 53 2 -29 2 -77 0 -105z m364 94 c9 -70 79 -126
151 -121 23 2 43 -1 45 -7 2 -5 -29 -25 -68 -43 -39 -18 -114 -62 -166 -97
-53 -35 -97 -64 -98 -64 -6 0 19 112 35 158 l18 52 -96 0 -97 1 40 34 c49 42
206 136 220 132 6 -2 13 -22 16 -45z m1272 27 c55 -28 179 -112 196 -133 12
-15 5 -16 -79 -16 -83 0 -92 -2 -87 -17 21 -64 47 -170 45 -179 -2 -7 -49 19
-105 56 -56 37 -132 80 -168 96 -36 16 -65 32 -65 37 0 5 8 6 18 1 49 -22 122
8 138 59 3 10 15 28 25 38 11 11 22 33 26 49 3 17 7 30 10 30 2 0 23 -10 46
-21z m67 -15 c0 -2 -9 0 -20 6 -11 6 -20 13 -20 16 0 2 9 0 20 -6 11 -6 20
-13 20 -16z m-1292 -7 c23 -25 33 -68 17 -74 -20 -7 -46 22 -52 60 -7 43 4 47
35 14z m-168 8 c0 -2 -10 -9 -22 -15 -22 -11 -22 -10 -4 4 21 17 26 19 26 11z
m596 -27 l29 -23 -50 -7 c-28 -4 -69 -10 -93 -14 -27 -4 -48 -2 -57 6 -23 19
-18 27 21 40 32 11 38 10 60 -11 13 -12 24 -17 24 -11 0 6 -5 14 -11 18 -8 4
-7 9 2 15 23 14 45 10 75 -13z m102 2 c17 -11 32 -22 32 -25 0 -3 -18 -5 -39
-5 -28 0 -48 7 -68 25 l-28 24 35 1 c19 0 50 -9 68 -20z m119 -6 l28 -19 -43
-3 c-35 -3 -49 2 -75 24 l-32 27 47 -5 c26 -3 60 -14 75 -24z m87 15 c33 0 74
-19 100 -48 19 -21 19 -21 -8 -21 -18 0 -37 10 -54 30 -15 17 -31 30 -36 30
-5 0 -1 -9 9 -20 18 -20 17 -20 -11 -20 -18 1 -43 13 -64 31 l-35 31 35 -7
c19 -3 48 -6 64 -6z m606 -15 c0 -2 -9 0 -20 6 -11 6 -20 13 -20 16 0 2 9 0
20 -6 11 -6 20 -13 20 -16z m-237 -11 c5 -28 -16 -83 -32 -83 -17 0 -20 43 -6
77 17 40 31 42 38 6z m-189 -33 c17 -16 27 -32 23 -36 -12 -12 -66 18 -92 51
l-25 34 32 -10 c18 -5 46 -22 62 -39z m457 23 c13 -16 12 -17 -3 -4 -10 7 -18
15 -18 17 0 8 8 3 21 -13z m-1621 3 c0 -2 -8 -10 -17 -17 -16 -13 -17 -12 -4
4 13 16 21 21 21 13z m492 -15 c21 -25 14 -31 -38 -31 -71 0 -98 21 -51 40 37
15 72 11 89 -9z m234 -8 c-4 -4 -34 -10 -66 -13 -33 -3 -56 -2 -52 2 4 4 30 9
57 11 28 2 54 4 59 5 5 1 6 -1 2 -5z m184 -11 c3 -2 -17 -2 -43 0 l-48 6 18
-22 18 -21 -22 19 c-13 11 -23 23 -23 27 0 9 91 0 100 -9z m330 -4 c39 -27 49
-48 23 -48 -23 0 -60 25 -73 51 -15 27 8 25 50 -3z m421 5 c13 -16 12 -17 -3
-4 -10 7 -18 15 -18 17 0 8 8 3 21 -13z m-1701 4 c0 -2 -10 -12 -22 -23 l-23
-19 19 23 c18 21 26 27 26 19z m424 -16 c15 -17 15 -19 1 -25 -36 -13 -115 4
-115 25 0 23 93 23 114 0z m416 16 c0 -2 -15 -16 -32 -33 -29 -26 -30 -26 -9
-2 l23 26 -24 5 c-18 3 -16 5 10 6 17 0 32 0 32 -2z m499 -41 c1 -6 -5 -1 -13
9 -8 11 -12 24 -8 29 5 9 20 -17 21 -38z m-719 19 c0 -8 -2 -15 -4 -15 -2 0
-6 7 -10 15 -3 8 -1 15 4 15 6 0 10 -7 10 -15z m423 8 c-7 -2 -21 -2 -30 0
-10 3 -4 5 12 5 17 0 24 -2 18 -5z m57 -19 c0 -2 -9 0 -20 6 -11 6 -20 13 -20
16 0 2 9 0 20 -6 11 -6 20 -13 20 -16z m-540 6 c-8 -5 -22 -9 -30 -9 -10 0 -8
3 5 9 27 12 43 12 25 0z m1196 -39 c-4 -6 -13 -11 -19 -11 -7 0 -6 4 3 10 12
7 11 12 -5 32 l-19 23 23 -21 c13 -12 20 -27 17 -33z m-1085 22 c13 -16 12
-17 -3 -4 -10 7 -18 15 -18 17 0 8 8 3 21 -13z m509 2 c32 -18 25 -18 -25 0
-22 8 -31 14 -20 14 11 0 31 -6 45 -14z m-698 -2 c-13 -3 -19 -9 -16 -15 4 -7
2 -8 -4 -4 -21 13 -13 26 16 25 23 -2 24 -2 4 -6z m194 -48 c30 -45 34 -57 24
-70 -16 -19 -26 -12 -50 35 -18 36 -27 90 -15 90 3 0 21 -25 41 -55z m239 -51
c-8 -16 -15 -55 -15 -89 0 -58 -18 -105 -41 -105 -15 0 -10 66 6 80 19 16 19
67 0 104 -8 15 -15 49 -15 74 l0 47 40 -41 c40 -39 41 -41 25 -70z m78 -4 c-2
-2 -27 20 -56 50 l-52 54 55 -49 c31 -28 54 -52 53 -55z m66 96 c-2 -2 -15 -9
-29 -15 -24 -11 -24 -11 -6 3 16 13 49 24 35 12z m101 -18 l35 -3 -42 -6 c-38
-4 -43 -2 -43 16 0 12 3 16 8 8 4 -6 23 -13 42 -15z m73 7 c-3 -9 -8 -14 -10
-11 -3 3 -2 9 2 15 9 16 15 13 8 -4z m-1278 -13 c-3 -3 -11 0 -18 7 -9 10 -8
11 6 5 10 -3 15 -9 12 -12z m1137 -13 c-3 -18 -14 -36 -31 -47 -14 -9 -30 -22
-34 -29 -13 -21 -29 -15 -17 6 5 11 10 31 10 46 0 20 8 29 33 40 44 19 44 19
39 -16z m-549 12 c-23 -4 -47 -11 -55 -17 -8 -5 -5 -1 5 9 12 10 33 17 56 16
l36 -2 -42 -6z m237 6 c0 -2 -13 -16 -28 -31 -27 -25 -30 -26 -43 -9 -12 16
-12 17 2 6 13 -11 20 -8 39 12 22 23 30 29 30 22z m-650 -15 c0 -4 -21 -6 -47
-4 -76 5 -83 10 -15 11 34 0 62 -2 62 -7z m474 -27 c-10 -5 -36 -28 -58 -50
l-39 -40 32 42 c17 23 41 45 51 48 11 4 20 14 21 23 0 13 2 14 6 2 4 -8 -2
-19 -13 -25z m630 19 c6 2 8 1 4 -1 -4 -2 -4 -12 -1 -21 3 -9 4 -15 2 -12 -24
29 -41 53 -30 43 7 -6 19 -10 25 -9z m423 9 c-20 -2 -52 -2 -70 0 -17 2 0 4
38 4 39 0 53 -2 32 -4z m-1207 -13 c-8 -5 -19 -10 -25 -10 -5 0 -3 5 5 10 8 5
20 10 25 10 6 0 3 -5 -5 -10z m122 3 c2 -5 -11 -22 -29 -40 -29 -28 -35 -30
-48 -17 -16 17 -7 48 17 57 20 8 56 8 60 0z m626 -9 c25 -17 29 -42 7 -50 -15
-6 -77 50 -67 61 10 10 38 5 60 -11z m92 -4 c8 -5 11 -10 5 -10 -5 0 -17 5
-25 10 -8 5 -10 10 -5 10 6 0 17 -5 25 -10z m-881 -4 c-10 -9 -109 -56 -109
-51 0 6 91 54 104 55 5 0 7 -2 5 -4z m691 -31 c-7 -8 -18 -15 -24 -15 -6 0 -3
5 7 11 9 5 17 18 18 27 0 11 2 12 6 4 3 -7 -1 -19 -7 -27z m-633 3 c-3 -8 -6
-5 -6 6 -1 11 2 17 5 13 3 -3 4 -12 1 -19z m703 -28 c17 -22 30 -40 27 -40 -3
0 -22 21 -43 47 -21 26 -33 44 -27 40 6 -4 26 -25 43 -47z m428 -15 c0 -16 -2
-15 -8 5 -11 34 -11 60 0 35 5 -11 8 -29 8 -40z m-1711 -52 c-2 -21 -4 -6 -4
32 0 39 2 55 4 38 2 -18 2 -50 0 -70z m220 75 c-3 -8 -6 -5 -6 6 -1 11 2 17 5
13 3 -3 4 -12 1 -19z m853 7 c16 -14 15 -19 -6 -62 -13 -26 -24 -65 -24 -87
-1 -63 -15 -112 -49 -164 l-31 -47 0 83 c0 66 3 82 15 82 25 0 42 42 48 118 8
95 15 106 47 77z m340 -55 c0 -4 -16 7 -35 26 -19 18 -35 35 -35 39 0 3 16 -9
35 -26 19 -18 35 -35 35 -39z m110 34 c0 -2 -9 0 -20 6 -11 6 -20 13 -20 16 0
2 9 0 20 -6 11 -6 20 -13 20 -16z m-541 -41 c1 -12 -3 -25 -9 -28 -6 -4 -10
12 -9 42 0 36 3 43 9 28 5 -11 9 -30 9 -42z m191 53 c0 -2 -7 -9 -15 -16 -13
-11 -14 -10 -9 4 5 14 24 23 24 12z m-770 -11 c0 -2 -10 -9 -22 -15 -22 -11
-22 -10 -4 4 21 17 26 19 26 11z m150 1 c0 -2 -8 -10 -17 -17 -16 -13 -17 -12
-4 4 13 16 21 21 21 13z m-343 -38 c-3 -7 -5 -2 -5 12 0 14 2 19 5 13 2 -7 2
-19 0 -25z m388 2 c-8 -16 -15 -36 -15 -45 0 -8 -6 -15 -13 -15 -17 0 -37 20
-37 37 0 20 38 53 60 53 19 0 20 -2 5 -30z m775 12 c18 -14 22 -25 16 -45 -9
-39 -28 -32 -52 18 -19 41 -20 45 -4 45 10 0 28 -8 40 -18z m200 -8 c0 -2 -9
0 -20 6 -11 6 -20 13 -20 16 0 2 9 0 20 -6 11 -6 20 -13 20 -16z m-789 -221
c1 -203 0 -235 -15 -255 l-17 -23 12 24 c8 17 11 98 10 260 -1 130 0 233 3
231 2 -3 6 -110 7 -237z m329 195 c0 -24 -7 -51 -15 -62 -8 -10 -19 -44 -25
-75 -6 -31 -23 -91 -38 -134 l-27 -78 28 -25 c15 -13 35 -24 43 -24 18 0 18
-9 -3 -32 -20 -22 -32 -22 -59 0 -56 47 -59 110 -9 191 29 46 37 72 45 139 13
118 60 197 60 100z m27 -285 c-1 -60 -3 -11 -3 107 0 118 2 167 3 108 2 -60 2
-156 0 -215z m-615 235 c-4 -4 -8 12 -9 35 l-1 42 8 -35 c5 -19 6 -38 2 -42z
m91 57 c-3 -9 -8 -14 -10 -11 -3 3 -2 9 2 15 9 16 15 13 8 -4z m1104 -17 c-3
-7 -5 -2 -5 12 0 14 2 19 5 13 2 -7 2 -19 0 -25z m200 -50 c-2 -18 -4 -6 -4
27 0 33 2 48 4 33 2 -15 2 -42 0 -60z m-1720 25 c-3 -10 -5 -4 -5 12 0 17 2
24 5 18 2 -7 2 -21 0 -30z m1473 -9 c0 -3 -13 4 -30 16 -16 12 -30 24 -30 26
0 3 14 -4 30 -16 17 -12 30 -24 30 -26z m-1380 32 c0 -3 -15 -14 -32 -26 l-33
-22 30 26 c31 27 35 29 35 22z m1037 -28 c-3 -7 -5 -2 -5 12 0 14 2 19 5 13 2
-7 2 -19 0 -25z m74 -1 c-10 -9 -11 -8 -5 6 3 10 9 15 12 12 3 -3 0 -11 -7
-18z m321 -29 c-8 -8 -9 -4 -5 13 4 13 8 18 11 10 2 -7 -1 -18 -6 -23z m-1158
-15 c-12 -68 -34 -89 -62 -61 -20 20 -14 45 19 72 42 36 51 33 43 -11z m825
22 c42 -21 57 -77 24 -89 -22 -9 -38 10 -51 62 -11 47 -11 47 27 27z m71 -59
c0 -13 -6 -29 -14 -35 -11 -9 -13 -26 -9 -64 4 -44 2 -55 -13 -67 -16 -12 -17
-12 -6 0 14 16 16 78 3 100 -7 10 -4 18 10 28 25 17 24 52 -2 88 l-21 29 26
-28 c14 -15 26 -39 26 -51z m-1453 -8 c-2 -13 -4 -3 -4 22 0 25 2 35 4 23 2
-13 2 -33 0 -45z m580 40 c-3 -8 -6 -5 -6 6 -1 11 2 17 5 13 3 -3 4 -12 1 -19z
m522 -90 c-1 -87 -4 -117 -16 -130 -9 -10 -20 -18 -25 -18 -16 0 -8 34 15 58
13 15 16 23 8 20 -24 -7 -53 -52 -45 -71 7 -20 35 -22 52 -5 9 9 12 4 12 -25
0 -40 -11 -45 -55 -25 -32 15 -32 42 0 133 13 39 25 79 25 91 0 23 19 84 26
84 3 0 4 -51 3 -112z m-626 87 c-3 -9 -8 -14 -10 -11 -3 3 -2 9 2 15 9 16 15
13 8 -4z m869 -20 c3 -13 1 -22 -3 -19 -9 5 -13 44 -5 44 2 0 6 -11 8 -25z
m-763 -74 c1 -61 -5 -48 -12 24 -3 36 -2 52 3 40 5 -11 9 -40 9 -64z m1318 27
c-2 -13 -4 -5 -4 17 -1 22 1 32 4 23 2 -10 2 -28 0 -40z m-1890 -45 c-3 -10
-5 -2 -5 17 0 19 2 27 5 18 2 -10 2 -26 0 -35z m551 -41 c-4 -32 -36 -42 -53
-18 -16 21 -8 59 18 87 l21 23 9 -33 c4 -18 7 -45 5 -59z m835 50 c25 -42 16
-85 -16 -80 -19 3 -22 10 -25 62 -3 66 10 72 41 18z m-902 1 c-12 -20 -14 -14
-5 12 4 9 9 14 11 11 3 -2 0 -13 -6 -23z m836 -40 c-3 -10 -5 -2 -5 17 0 19 2
27 5 18 2 -10 2 -26 0 -35z m560 0 c-3 -10 -5 -2 -5 17 0 19 2 27 5 18 2 -10
2 -26 0 -35z m-1405 -12 c2 -17 1 -28 -4 -25 -8 5 -12 54 -4 54 2 0 6 -13 8
-29z m-465 -18 c-3 -10 -5 -4 -5 12 0 17 2 24 5 18 2 -7 2 -21 0 -30z m1853
-68 c-7 -36 -14 -64 -17 -62 -2 3 2 34 8 71 7 36 14 64 17 61 2 -2 -1 -34 -8
-70z m-1274 -53 c-37 -38 -70 31 -45 94 l12 29 24 -54 c23 -49 24 -54 9 -69z
m105 -60 c5 -2 6 -8 3 -14 -6 -9 -114 157 -114 176 0 5 23 -29 50 -75 28 -46
55 -86 61 -87z m653 152 c10 -25 7 -92 -4 -99 -16 -10 -50 5 -50 20 0 22 31
95 40 95 4 0 11 -7 14 -16z m-1327 -31 c-3 -10 -5 -4 -5 12 0 17 2 24 5 18 2
-7 2 -21 0 -30z m503 15 c0 -6 -6 -5 -15 2 -8 7 -15 14 -15 16 0 2 7 1 15 -2
8 -4 15 -11 15 -16z m766 -15 c-8 -15 -15 -25 -16 -21 0 12 23 58 27 54 3 -2
-2 -17 -11 -33z m94 -13 c0 -22 -2 -40 -4 -40 -2 0 -6 18 -8 40 -2 22 0 40 4
40 5 0 8 -18 8 -40z m-873 -12 c-3 -8 -6 -5 -6 6 -1 11 2 17 5 13 3 -3 4 -12
1 -19z m-480 -20 c-3 -8 -6 -5 -6 6 -1 11 2 17 5 13 3 -3 4 -12 1 -19z m1224
-11 c-10 -9 -11 -8 -5 6 3 10 9 15 12 12 3 -3 0 -11 -7 -18z m-577 -121 c-9
-23 -40 -20 -58 6 -16 22 -22 99 -10 111 11 11 75 -99 68 -117z m-626 54 c0
-9 -3 -7 -8 5 -5 11 -8 29 -8 40 0 16 2 15 8 -5 4 -14 8 -32 8 -40z m942 8
l30 -24 -40 -39 -40 -39 0 79 c1 58 3 75 10 63 6 -9 24 -27 40 -40z m290 4 c0
-27 -6 -56 -13 -66 -16 -22 -50 -18 -55 7 -4 18 47 107 61 107 4 0 7 -22 7
-48z m80 33 c-7 -8 -17 -15 -23 -15 -6 0 -2 7 9 15 25 19 30 19 14 0z m-815
-13 c-3 -3 -11 0 -18 7 -9 10 -8 11 6 5 10 -3 15 -9 12 -12z m32 -29 c-3 -10
-5 -4 -5 12 0 17 2 24 5 18 2 -7 2 -21 0 -30z m536 7 c17 -28 17 -29 -2 -39
-16 -9 -21 -6 -31 19 -21 51 5 68 33 20z m187 -47 c-11 -17 -11 -17 -6 0 3 10
7 33 8 50 l1 32 4 -32 c2 -18 -1 -41 -7 -50z m534 43 c-3 -15 -8 -25 -11 -23
-2 3 -1 17 3 31 3 15 8 25 11 23 2 -3 1 -17 -3 -31z m-1038 8 c-13 -34 -169
-274 -178 -274 -5 0 -8 4 -6 9 9 25 174 280 182 281 4 0 5 -7 2 -16z m342 -9
c-3 -3 -9 2 -12 12 -6 14 -5 15 5 6 7 -7 10 -15 7 -18z m-292 -37 l29 -33 -31
28 -32 28 -22 -35 c-20 -33 -41 -53 -24 -23 12 20 45 67 48 67 1 0 15 -15 32
-32z m214 29 c0 -1 -24 -25 -52 -52 l-53 -50 50 53 c46 48 55 57 55 49z m137
-12 c5 -4 3 -5 -4 -2 -6 4 -13 2 -15 -4 -2 -7 -8 -6 -16 3 -9 12 -8 14 8 13
11 -1 23 -5 27 -10z m-1111 -112 c-5 -5 -36 86 -35 101 0 6 9 -13 20 -43 10
-30 17 -56 15 -58z m639 97 c3 -5 1 -10 -4 -10 -6 0 -11 5 -11 10 0 6 2 10 4
10 3 0 8 -4 11 -10z m353 -15 c-3 -3 -9 2 -12 12 -6 14 -5 15 5 6 7 -7 10 -15
7 -18z m72 16 c0 -12 -42 -42 -49 -36 -5 6 29 45 41 45 4 0 8 -4 8 -9z m655
-61 c-9 -28 -19 -50 -21 -48 -2 2 4 27 13 56 9 28 19 50 21 47 2 -2 -4 -27
-13 -55z m-1104 4 c-15 -34 -25 -25 -16 16 5 23 10 29 18 21 7 -7 7 -18 -2
-37z m493 30 c3 -8 2 -12 -4 -9 -6 3 -10 10 -10 16 0 14 7 11 14 -7z m-44 -19
c-12 -13 -27 -22 -31 -19 -5 3 -9 1 -9 -4 0 -20 13 -19 37 4 14 13 30 21 34
18 13 -8 2 -22 -32 -39 -27 -14 -31 -14 -45 0 -14 13 -12 17 13 40 38 33 64
33 33 0z m-86 -1 c3 -8 2 -12 -4 -9 -6 3 -10 10 -10 16 0 14 7 11 14 -7z m226
12 c0 -2 -8 -10 -17 -17 -16 -13 -17 -12 -4 4 13 16 21 21 21 13z m-345 -70
c6 -4 1 -4 -10 2 -11 6 -31 23 -45 39 l-25 28 35 -30 c19 -16 40 -34 45 -39z
m-276 20 c-1 -17 -2 -17 -6 -3 -2 9 -11 17 -18 17 -8 0 -16 4 -19 9 -3 4 6 6
19 3 18 -3 25 -10 24 -26z m106 6 c-3 -3 -11 0 -18 7 -9 10 -8 11 6 5 10 -3
15 -9 12 -12z m465 8 c-13 -8 -13 -12 -1 -32 13 -21 13 -22 -2 -9 -23 18 -22
51 1 51 14 0 15 -2 2 -10z m-174 -28 c-17 -16 -18 -16 -5 5 7 12 15 20 18 17
3 -2 -3 -12 -13 -22z m116 -4 c-12 -12 -25 -18 -29 -14 -4 4 3 16 16 27 31 25
41 15 13 -13z m-424 -3 c15 -33 5 -55 -24 -55 -32 0 -40 22 -19 54 21 32 29
33 43 1z m82 -10 c13 -14 21 -25 18 -25 -2 0 -15 11 -28 25 -13 14 -21 25 -18
25 2 0 15 -11 28 -25z m36 -88 c6 -20 -11 -47 -31 -47 -34 0 -76 96 -60 137 5
15 13 11 45 -27 22 -25 42 -53 46 -63z m224 62 c0 -43 -24 -95 -48 -104 -18
-7 -42 12 -42 34 0 17 69 110 83 111 4 0 7 -18 7 -41z m168 -8 c32 -17 27 -31
-12 -31 -29 0 -39 -7 -72 -50 -47 -61 -73 -68 -43 -11 11 21 23 56 26 77 8 53
30 70 57 45 12 -10 31 -24 44 -30z m-1158 4 c0 -5 -5 -3 -10 5 -5 8 -10 20
-10 25 0 6 5 3 10 -5 5 -8 10 -19 10 -25z m804 -9 c-21 -42 -25 -43 -43 -13
-10 17 -11 19 0 10 19 -19 25 -16 39 17 7 17 15 29 17 27 2 -3 -4 -21 -13 -41z
m-488 -13 c33 -27 71 -56 84 -66 22 -16 22 -16 2 -7 -12 6 -48 32 -80 58 -37
30 -71 49 -97 53 l-40 6 36 2 c29 1 47 -8 95 -46z m607 25 c-11 -13 -24 -31
-29 -40 -9 -16 -11 -15 -23 5 -9 15 -10 18 -1 10 10 -9 18 -5 37 18 14 16 27
29 31 29 3 0 -4 -10 -15 -22z m515 15 c-10 -2 -28 -2 -40 0 -13 2 -5 4 17 4
22 1 32 -1 23 -4z m223 -20 c-12 -20 -14 -14 -5 12 4 9 9 14 11 11 3 -2 0 -13
-6 -23z m-615 -10 c-3 -3 -13 -2 -23 2 -17 7 -17 8 2 15 19 7 34 -5 21 -17z
m324 24 c0 -2 -10 -12 -22 -23 l-23 -19 19 23 c18 21 26 27 26 19z m-1210 -11
c0 -2 -8 -10 -17 -17 -16 -13 -17 -12 -4 4 13 16 21 21 21 13z m127 -29 c152
-135 310 -191 533 -190 209 1 340 44 496 163 43 33 88 60 100 60 12 0 36 -12
53 -26 41 -34 44 -92 5 -131 -22 -22 -32 -25 -71 -20 -37 4 -52 0 -82 -20 -64
-44 -168 -92 -258 -119 -78 -24 -105 -27 -238 -27 -166 -1 -234 11 -358 63
-40 16 -98 47 -130 69 -51 34 -64 38 -102 33 -39 -4 -48 -1 -75 26 -44 45 -35
107 21 138 38 21 66 16 106 -19z m233 13 c-6 -11 -13 -20 -16 -20 -2 0 0 9 6
20 6 11 13 20 16 20 2 0 0 -9 -6 -20z m345 -39 c26 -59 6 -91 -49 -77 -33 8
-37 36 -13 90 22 53 33 50 62 -13z m-826 -28 c17 -35 29 -63 26 -63 -5 0 -65
116 -65 126 0 12 6 2 39 -63z m557 55 c4 -6 3 -8 -4 -4 -5 3 -20 -10 -32 -29
-12 -19 -24 -35 -26 -35 -6 0 2 14 28 53 22 31 24 32 34 15z m432 -7 c12 -7
11 -14 -2 -40 -9 -17 -19 -31 -22 -31 -2 0 2 13 11 29 8 17 11 32 6 35 -5 4
-12 0 -14 -6 -3 -8 -6 -6 -6 5 -1 19 7 21 27 8z m287 -1 c-3 -5 -20 -19 -38
-30 -32 -22 -32 -22 3 9 37 32 45 37 35 21z m203 -15 c-3 -3 -9 2 -12 12 -6
14 -5 15 5 6 7 -7 10 -15 7 -18z m-881 9 c-3 -3 -12 -4 -19 -1 -8 3 -5 6 6 6
11 1 17 -2 13 -5z m513 -8 c0 -2 -9 -6 -20 -9 -11 -3 -18 -1 -14 4 5 9 34 13
34 5z m470 -45 c-28 -56 -35 -52 -8 4 12 24 23 43 26 41 2 -2 -6 -22 -18 -45z
m-1474 -64 c10 -13 7 -10 -8 5 -21 21 -28 37 -27 66 l2 37 6 -42 c4 -24 16
-53 27 -66z m534 78 c14 -19 14 -19 -2 -6 -10 7 -18 18 -18 24 0 6 1 8 3 6 1
-2 9 -13 17 -24z m847 -17 c-3 -7 -5 -2 -5 12 0 14 2 19 5 13 2 -7 2 -19 0
-25z m-1036 5 c13 -16 12 -17 -3 -4 -10 7 -18 15 -18 17 0 8 8 3 21 -13z m619
14 c0 -2 -10 -12 -22 -23 l-23 -19 19 23 c18 21 26 27 26 19z m-120 -11 c0 -2
-8 -10 -17 -17 -16 -13 -17 -12 -4 4 13 16 21 21 21 13z m250 -1 c0 -2 -10 -9
-22 -15 -22 -11 -22 -10 -4 4 21 17 26 19 26 11z m-744 -53 c-5 -4 -66 26 -66
33 0 3 16 -3 35 -12 19 -9 33 -18 31 -21z m286 12 c8 -16 7 -17 -4 -4 -7 8
-24 14 -37 12 -13 -2 -27 0 -32 5 -4 4 8 8 28 7 24 -1 39 -7 45 -20z m141 8
c-17 -2 -37 -10 -43 -18 -7 -8 -16 -14 -21 -14 -4 0 2 10 14 23 16 16 30 21
52 17 l30 -5 -32 -3z m98 -32 c7 0 22 8 33 17 17 14 17 13 -2 -7 -18 -20 -26
-23 -40 -14 -9 6 -18 20 -19 30 -2 15 -1 14 7 -3 5 -13 15 -23 21 -23z m499
29 c0 -15 -56 -69 -72 -69 -7 0 1 9 19 19 17 11 34 29 38 40 7 23 15 28 15 10z
m-380 -19 c-8 -5 -19 -10 -25 -10 -5 0 -3 5 5 10 8 5 20 10 25 10 6 0 3 -5 -5
-10z m-580 -15 c19 -7 28 -14 20 -14 -8 0 -28 6 -45 14 -39 17 -21 18 25 0z
m1013 -15 c-9 -17 -28 -43 -41 -58 -13 -15 -6 -1 14 31 38 59 58 79 27 27z
m-1449 -50 c27 -40 29 -46 9 -23 -15 17 -37 46 -47 65 -26 45 -8 25 38 -42z
m503 44 c-3 -3 -12 -4 -19 -1 -8 3 -5 6 6 6 11 1 17 -2 13 -5z m410 0 c-3 -3
-12 -4 -19 -1 -8 3 -5 6 6 6 11 1 17 -2 13 -5z m-760 -10 c-3 -3 -12 -4 -19
-1 -8 3 -5 6 6 6 11 1 17 -2 13 -5z m406 -1 c-7 -2 -21 -2 -30 0 -10 3 -4 5
12 5 17 0 24 -2 18 -5z m310 0 c-7 -2 -21 -2 -30 0 -10 3 -4 5 12 5 17 0 24
-2 18 -5z m382 0 c-10 -3 -31 -12 -45 -20 l-25 -15 25 21 c14 11 34 20 45 20
20 -1 20 -1 0 -6z m-1138 -9 c-3 -3 -12 -4 -19 -1 -8 3 -5 6 6 6 11 1 17 -2
13 -5z m646 -1 c-35 -2 -91 -2 -125 0 -35 2 -7 3 62 3 69 0 97 -1 63 -3z m544
1 c-3 -3 -12 -4 -19 -1 -8 3 -5 6 6 6 11 1 17 -2 13 -5z m-127 -29 c0 -2 -10
-9 -22 -15 -22 -11 -22 -10 -4 4 21 17 26 19 26 11z m-844 -63 c-5 -4 -106 46
-106 53 0 3 25 -7 55 -22 30 -15 53 -29 51 -31z m1033 1 c-60 -69 -98 -108
-144 -146 -27 -23 -2 6 55 65 103 104 138 136 89 81z m-1289 -28 c19 -19 32
-35 29 -35 -3 0 -20 16 -39 35 -19 19 -32 35 -29 35 3 0 20 -16 39 -35z m300
15 c8 -5 11 -10 5 -10 -5 0 -17 5 -25 10 -8 5 -10 10 -5 10 6 0 17 -5 25 -10z
m615 -15 c-16 -8 -37 -14 -45 -14 -8 0 1 7 20 14 46 18 64 17 25 0z m-515 -15
c20 -6 21 -8 5 -8 -11 0 -29 3 -40 8 -25 11 1 11 35 0z m447 -6 c-3 -3 -12 -4
-19 -1 -8 3 -5 6 6 6 11 1 17 -2 13 -5z m-374 -11 c-7 -2 -21 -2 -30 0 -10 3
-4 5 12 5 17 0 24 -2 18 -5z m330 0 c-7 -2 -21 -2 -30 0 -10 3 -4 5 12 5 17 0
24 -2 18 -5z m-120 -10 c-34 -2 -93 -2 -130 0 -37 2 -9 3 62 3 72 0 102 -1 68
-3z m-573 -68 c19 -19 32 -35 29 -35 -3 0 -20 16 -39 35 -19 19 -32 35 -29 35
3 0 20 -16 39 -35z m110 -92 c0 -7 -58 36 -66 49 -4 7 9 -1 29 -16 20 -16 37
-30 37 -33z m865 37 c-3 -5 -20 -19 -38 -30 -32 -22 -32 -22 3 9 37 32 45 37
35 21z m-105 -75 c0 -2 -10 -9 -22 -15 -22 -11 -22 -10 -4 4 21 17 26 19 26
11z m-650 -31 c0 -2 -9 0 -20 6 -11 6 -20 13 -20 16 0 2 9 0 20 -6 11 -6 20
-13 20 -16z m600 1 c0 -2 -10 -9 -22 -15 -22 -11 -22 -10 -4 4 21 17 26 19 26
11z m-530 -41 c0 -2 -13 2 -30 11 -16 9 -30 18 -30 21 0 2 14 -2 30 -11 17 -9
30 -18 30 -21z m480 11 c0 -6 -197 -105 -207 -104 -6 0 194 106 205 108 1 1 2
-1 2 -4z m-344 -83 c-5 -4 -106 46 -106 53 0 3 25 -7 55 -22 30 -15 53 -29 51
-31z m89 -32 c13 -6 15 -9 5 -9 -8 0 -22 4 -30 9 -18 12 -2 12 25 0z"/>
<path d="M969 1828 c5 -30 6 -31 9 -8 2 14 9 28 16 32 7 5 3 8 -10 8 -18 0
-20 -5 -15 -32z"/>
<path d="M1021 1836 c-7 -16 -9 -31 -6 -34 2 -3 8 6 13 18 l9 24 6 -24 c3 -13
9 -21 12 -18 4 3 0 19 -8 35 l-15 28 -11 -29z"/>
<path d="M830 1826 c-13 -36 -13 -41 5 -26 8 6 19 9 26 5 8 -5 7 0 -1 16 -18
34 -18 34 -30 5z"/>
<path d="M891 1823 c0 -25 1 -26 9 -8 12 27 12 35 0 35 -5 0 -10 -12 -9 -27z"/>
<path d="M917 1837 c-3 -8 -1 -20 4 -28 6 -10 9 -7 9 14 0 29 -5 35 -13 14z"/>
<path d="M1081 1823 c0 -25 1 -26 9 -8 12 27 12 35 0 35 -5 0 -10 -12 -9 -27z"/>
<path d="M751 1809 c0 -19 3 -28 6 -21 2 6 9 10 14 6 14 -8 10 9 -6 30 -14 19
-15 18 -14 -15z"/>
<path d="M780 1828 c0 -7 5 -20 10 -28 8 -12 10 -9 10 13 0 15 -4 27 -10 27
-5 0 -10 -6 -10 -12z"/>
<path d="M1239 1806 c4 -23 6 -26 9 -11 2 11 9 23 14 26 5 3 1 8 -9 11 -16 4
-18 1 -14 -26z"/>
<path d="M710 1811 c0 -11 4 -22 9 -25 4 -3 6 6 3 19 -5 30 -12 33 -12 6z"/>
<path d="M1100 1821 c0 -6 5 -13 10 -16 6 -3 10 1 10 9 0 9 -4 16 -10 16 -5 0
-10 -4 -10 -9z"/>
<path d="M651 1810 c0 -8 4 -24 9 -35 5 -13 9 -14 9 -5 0 8 -4 24 -9 35 -5 13
-9 14 -9 5z"/>
<path d="M1288 1797 c-3 -19 -2 -25 4 -19 6 6 8 18 6 28 -3 14 -5 12 -10 -9z"/>
<path d="M1327 1803 c-4 -3 -7 -13 -7 -22 1 -13 3 -13 11 2 11 19 8 33 -4 20z"/>
<path d="M1351 1788 c-7 -11 -10 -23 -7 -26 3 -3 6 1 7 9 0 8 4 6 8 -6 7 -17
8 -17 13 8 7 34 -4 42 -21 15z"/>
<path d="M595 1780 c-8 -26 -6 -28 23 -21 24 6 24 6 4 24 -20 18 -20 18 -27
-3z"/>
<path d="M543 1774 c-5 -13 -7 -13 -14 -2 -7 10 -9 10 -9 -2 0 -8 5 -22 10
-30 7 -12 10 -12 10 -1 0 8 6 11 16 7 14 -5 15 -4 5 8 -7 8 -10 20 -6 26 3 5
4 10 0 10 -3 0 -8 -7 -12 -16z"/>
<path d="M1396 1774 c-9 -24 13 -47 30 -33 8 6 14 19 13 28 0 10 -3 8 -10 -7
-11 -28 -29 -21 -22 8 6 24 -2 27 -11 4z"/>
<path d="M1463 1753 c-3 -10 -9 -22 -11 -28 -3 -5 2 -4 11 4 15 12 17 11 17
-5 0 -17 1 -17 14 2 10 13 11 23 4 31 -15 18 -28 16 -35 -4z m32 -3 c3 -5 2
-10 -4 -10 -5 0 -13 5 -16 10 -3 6 -2 10 4 10 5 0 13 -4 16 -10z"/>
<path d="M1479 664 c13 -27 2 -39 -15 -16 -7 9 -14 12 -14 6 0 -21 26 -36 39
-21 8 10 7 18 -5 33 -15 18 -15 18 -5 -2z"/>
<path d="M522 649 c-8 -12 -8 -19 -2 -19 5 0 10 4 10 9 0 5 8 11 18 13 15 3
15 4 1 10 -9 4 -20 -1 -27 -13z"/>
<path d="M586 604 c-9 -24 -2 -26 12 -4 7 11 8 20 3 20 -5 0 -12 -7 -15 -16z"/>
<path d="M612 590 c-7 -11 -8 -20 -3 -20 9 0 24 30 18 36 -1 2 -8 -6 -15 -16z"/>
<path d="M1388 585 c9 -11 18 -22 19 -24 2 -2 3 7 3 20 0 18 -5 25 -20 25 -18
0 -18 -1 -2 -21z"/>
<path d="M680 579 c-6 -11 -10 -25 -7 -32 2 -6 9 3 15 21 12 36 8 42 -8 11z"/>
<path d="M1295 581 c-4 -7 1 -8 12 -4 16 6 16 5 4 -10 -8 -10 -11 -20 -7 -24
3 -3 6 0 6 8 0 12 2 11 11 -1 8 -12 9 -10 7 9 -3 26 -22 39 -33 22z"/>
<path d="M701 563 c-1 -6 -4 -20 -7 -30 -5 -17 -5 -17 6 0 6 10 9 23 6 30 -3
9 -5 9 -5 0z"/>
<path d="M1201 555 c0 -11 5 -29 10 -40 8 -18 8 -18 6 5 -1 16 3 24 11 22 8
-1 11 2 7 8 -3 6 -10 8 -15 5 -4 -3 -11 1 -13 7 -3 7 -5 4 -6 -7z"/>
<path d="M761 527 c-1 -22 3 -28 16 -25 10 2 18 10 19 18 0 9 -1 10 -3 3 -7
-21 -21 -15 -26 10 -4 18 -5 17 -6 -6z"/>
<path d="M1123 533 c-8 -3 -5 -11 8 -24 24 -24 28 -24 22 1 -6 24 -13 29 -30
23z"/>
<path d="M852 505 c0 -16 2 -22 5 -12 2 9 2 23 0 30 -3 6 -5 -1 -5 -18z"/>
<path d="M1041 503 c1 -22 2 -23 6 -8 3 11 10 23 17 27 7 5 5 8 -6 8 -13 0
-18 -7 -17 -27z"/>
</g>
</svg>
