<?xml version="1.0" standalone="no"?>
<!DOCTYPE svg PUBLIC "-//W3C//DTD SVG 20010904//EN"
 "http://www.w3.org/TR/2001/REC-SVG-20010904/DTD/svg10.dtd">
<svg version="1.0" xmlns="http://www.w3.org/2000/svg"
 width="193.000000pt" height="261.000000pt" viewBox="0 0 193.000000 261.000000"
 preserveAspectRatio="xMidYMid meet">

<g transform="translate(0.000000,261.000000) scale(0.100000,-0.100000)"
fill="#000000" stroke="none">
<path d="M755 2599 c-187 -14 -395 -58 -581 -123 -167 -58 -175 -63 -165 -89
5 -12 30 -89 56 -172 26 -82 49 -151 50 -153 2 -2 47 13 101 33 247 93 461
130 749 130 288 0 502 -37 749 -130 54 -20 99 -35 101 -33 1 2 27 81 58 176
l55 173 -37 15 c-340 143 -740 204 -1136 173z m75 -166 l30 -58 -2 54 c-1 35
2 56 10 59 9 3 12 -21 12 -87 0 -105 -11 -116 -43 -41 -11 28 -23 50 -26 50
-4 0 -4 -22 -3 -50 6 -81 -16 -58 -23 25 -7 69 -3 105 10 105 2 0 18 -26 35
-57z m170 46 c0 -6 -9 -13 -20 -16 -18 -5 -20 -14 -20 -74 0 -49 -4 -69 -12
-69 -10 0 -12 18 -10 66 3 59 2 66 -17 71 -12 3 -21 12 -21 19 0 10 14 14 50
14 30 0 50 -4 50 -11z m70 -31 c6 -24 17 -62 25 -85 15 -48 5 -65 -18 -30 -18
28 -48 31 -55 5 -4 -16 -32 -27 -32 -12 0 4 10 42 22 85 24 89 42 100 58 37z
m-329 -46 c12 -37 24 -73 27 -79 2 -7 -3 -13 -12 -13 -9 0 -16 7 -16 15 0 24
-51 19 -57 -5 -7 -27 -23 -25 -23 3 1 27 25 131 35 146 11 19 23 3 46 -67z
m435 26 l19 -53 5 48 c8 76 25 50 21 -33 -2 -41 -5 -79 -8 -83 -9 -15 -31 14
-44 61 l-13 47 -8 -48 c-7 -50 -13 -65 -24 -55 -11 11 8 168 20 168 7 0 21
-24 32 -52z m-541 -60 c8 -90 -8 -109 -21 -25 l-9 52 -5 -55 c-3 -30 -9 -54
-15 -53 -5 0 -18 23 -28 50 l-17 48 5 -52 c3 -31 2 -53 -4 -53 -13 0 -18 22
-27 103 -6 61 -5 67 12 67 14 0 23 -14 35 -52 l17 -53 1 52 c1 38 6 55 18 62
24 13 29 1 38 -91z m726 92 c19 0 29 -5 29 -15 0 -8 -8 -15 -19 -15 -16 0 -19
-11 -25 -70 -10 -94 -29 -92 -24 2 2 63 1 73 -15 76 -9 2 -17 7 -17 11 0 14
14 22 28 16 7 -3 27 -5 43 -5z m64 -77 c-9 -89 -15 -114 -27 -107 -16 10 6
174 24 174 7 0 8 -23 3 -67z m-941 25 c15 -89 18 -138 8 -138 -6 0 -14 15 -17
33 -3 17 -9 53 -14 79 -5 26 -6 50 -3 53 12 12 20 3 26 -27z m1003 24 c6 -4
13 -30 15 -57 l3 -50 16 45 c10 28 23 46 34 49 16 3 17 -3 12 -58 -9 -80 -17
-111 -29 -111 -6 0 -8 18 -4 48 6 48 -1 42 -24 -21 -15 -41 -30 -24 -31 36
l-2 52 -10 -52 c-14 -75 -31 -68 -23 10 14 116 17 125 43 109z m-1097 -83 l12
-71 29 6 c21 4 29 2 29 -8 0 -16 -21 -26 -55 -26 -26 0 -30 11 -41 108 -9 88
11 81 26 -9z m1236 14 c-20 -109 -20 -113 2 -113 21 0 25 9 46 103 7 30 26 37
26 10 0 -33 -29 -126 -43 -140 -10 -10 -20 -11 -39 -4 -33 12 -42 39 -30 88 6
21 13 50 16 66 10 43 30 34 22 -10z m-1299 -48 c26 -48 37 -77 31 -81 -6 -4
-17 1 -24 10 -16 23 -48 17 -52 -10 -2 -11 -15 -25 -32 -31 -27 -10 -32 -9
-51 18 -29 41 -43 37 -35 -11 5 -30 3 -40 -7 -40 -8 0 -20 28 -31 75 -21 87
-21 88 -7 93 5 2 14 -12 19 -30 8 -29 10 -30 17 -13 18 51 25 65 36 65 10 0 8
-21 -6 -62 -2 -7 11 -30 29 -51 l34 -38 7 91 c4 57 11 90 19 90 6 0 30 -34 53
-75z m1471 19 c27 -18 28 -48 3 -73 -15 -15 -18 -28 -14 -63 6 -39 5 -42 -10
-29 -10 7 -17 22 -17 33 0 11 -5 29 -12 41 -11 21 -12 21 -22 -10 -6 -18 -15
-33 -21 -33 -13 0 -13 3 9 88 20 79 26 82 84 46z"/>
<path d="M1041 2428 c-1 -9 -4 -23 -7 -32 -4 -11 -1 -16 10 -16 17 0 19 14 6
45 -7 16 -9 17 -9 3z"/>
<path d="M698 2396 c-4 -18 -1 -26 8 -26 16 0 18 18 5 38 -6 10 -10 7 -13 -12z"/>
<path d="M280 2312 c0 -24 4 -30 15 -26 12 5 12 10 3 27 -16 33 -18 33 -18 -1z"/>
<path d="M1744 2305 c-8 -19 -5 -22 21 -27 14 -2 20 3 20 17 0 24 -33 33 -41
10z"/>
<path d="M351 2044 c-6 -122 -67 -228 -176 -308 l-65 -49 35 -41 c96 -112 125
-174 125 -265 0 -73 -10 -108 -81 -278 -72 -173 -88 -256 -71 -370 27 -176
144 -336 309 -420 91 -47 117 -56 240 -82 50 -11 109 -29 130 -40 44 -22 123
-102 147 -149 9 -18 19 -32 21 -32 2 0 12 14 21 32 24 47 103 127 147 149 21
11 80 29 130 40 118 25 148 35 227 75 179 91 293 242 322 426 17 115 1 198
-72 373 -68 163 -84 224 -78 304 5 71 33 128 103 212 l55 67 -66 48 c-36 26
-81 70 -101 96 -41 56 -73 150 -73 214 0 24 -2 44 -4 44 -2 0 -31 -18 -64 -40
-173 -116 -337 -122 -489 -20 -26 18 -52 33 -58 33 -5 0 -32 -15 -58 -33 -147
-99 -291 -97 -468 7 -32 18 -61 38 -64 43 -13 21 -21 8 -24 -36z m794 -109
c110 -30 253 -5 351 61 41 28 54 22 54 -27 0 -44 28 -110 71 -167 l41 -54
-117 -118 -118 -118 -61 46 c-111 85 -271 141 -401 141 -89 0 -200 -28 -293
-74 -149 -74 -258 -198 -320 -363 -30 -82 -41 -248 -22 -345 15 -80 75 -207
130 -276 l42 -53 -86 -87 -87 -86 -42 46 c-88 96 -140 226 -141 354 0 97 18
162 86 309 106 230 98 360 -29 505 -28 32 -43 56 -36 58 31 11 124 89 152 128
35 49 61 114 61 154 0 49 13 55 54 27 58 -39 144 -67 222 -73 88 -7 184 19
259 70 l49 34 58 -37 c32 -21 87 -46 123 -55z m-196 -414 c9 -6 24 -6 38 0 17
6 28 4 42 -9 10 -9 26 -22 37 -28 20 -12 28 -64 10 -76 -6 -4 -5 -12 3 -22 11
-13 11 -19 1 -31 -7 -8 -19 -15 -27 -15 -8 0 -13 -7 -11 -17 2 -10 8 -16 13
-13 6 3 9 8 8 13 -4 9 11 9 20 0 11 -10 -13 -33 -35 -33 -10 0 -21 7 -24 15
-4 8 -10 12 -15 9 -5 -2 -17 0 -28 6 -14 7 -22 7 -26 -1 -4 -6 -13 -8 -20 -5
-8 3 -19 -2 -26 -10 -7 -8 -22 -14 -33 -12 -24 4 -35 38 -12 38 10 0 13 -6 10
-15 -5 -11 -2 -13 10 -9 23 9 20 23 -8 35 -22 10 -24 16 -21 73 3 78 3 76 18
76 8 0 22 9 32 20 20 22 24 23 44 11z m-341 -170 c23 -7 32 -6 32 2 0 6 7 4
17 -6 23 -22 9 -33 -23 -18 l-26 11 24 -29 c12 -16 63 -74 111 -130 49 -55 87
-105 85 -111 -3 -10 -119 118 -198 219 -19 24 -48 50 -65 57 -23 10 -25 13
-10 14 11 0 35 -4 53 -9z m433 -72 c54 -38 63 -127 18 -175 -50 -53 -125 -56
-172 -6 -106 110 29 268 154 181z m224 -143 c-135 -129 -150 -141 -153 -119
-2 15 4 32 15 42 162 146 193 177 191 190 -2 11 10 19 42 27 25 6 47 9 50 7 2
-2 -63 -69 -145 -147z m-353 -72 c24 -23 93 -22 119 2 15 14 24 16 37 7 18
-11 24 -35 7 -30 -5 1 -9 5 -7 10 1 4 -5 7 -13 7 -8 0 -15 -7 -15 -15 0 -8 4
-15 9 -15 5 0 17 -7 25 -16 12 -11 13 -20 6 -34 -6 -10 -6 -21 -2 -24 4 -2 7
-17 6 -33 -2 -41 -3 -43 -17 -43 -7 0 -20 -9 -30 -20 -18 -22 -52 -27 -63 -9
-4 8 -9 8 -17 0 -18 -18 -45 -13 -61 11 -9 12 -16 19 -16 14 0 -5 -6 -3 -14 3
-15 13 -20 81 -5 81 5 0 4 9 -3 19 -13 22 3 51 29 51 17 0 12 22 -7 28 -7 3
-10 0 -6 -6 3 -6 2 -13 -3 -16 -16 -10 -24 14 -11 29 16 19 29 19 52 -1z m-34
-277 c27 -25 28 -37 3 -37 -10 0 -22 -10 -26 -22 l-8 -23 -4 22 c-2 12 -18 36
-34 54 -24 26 -34 30 -56 24 -36 -9 -21 6 20 21 34 12 58 3 105 -39z m30 6
c-9 -11 -14 -10 -31 8 -16 17 -17 23 -6 30 20 12 53 -20 37 -38z m170 7 c28
-37 44 -38 71 -4 19 24 22 25 42 10 22 -15 22 -16 -32 -41 -65 -30 -99 -32
-99 -7 0 10 -7 27 -15 38 -13 20 -11 34 5 34 3 0 16 -13 28 -30z m-310 -52 c7
-7 12 -22 12 -35 0 -20 5 -23 43 -23 36 0 49 -6 77 -35 33 -34 33 -34 45 -12
8 15 8 27 1 39 -15 25 10 51 35 37 23 -12 25 -35 3 -47 -14 -8 -14 -10 -2 -15
16 -6 18 -72 4 -96 -4 -6 -3 -18 3 -25 17 -20 2 -48 -23 -44 -24 4 -34 36 -14
50 10 7 10 11 1 15 -7 2 -13 14 -13 26 0 12 -11 30 -24 39 -21 15 -25 16 -30
2 -10 -26 -60 -14 -64 15 -2 13 1 27 8 31 6 4 -5 6 -25 5 -20 -1 -41 -7 -48
-14 -15 -15 -27 -14 -21 3 3 8 -3 16 -15 19 -38 10 -21 77 19 77 9 0 21 -5 28
-12z m460 0 c18 -18 14 -45 -9 -62 -12 -8 -18 -19 -14 -25 8 -14 -8 -14 -22 0
-7 7 -28 13 -47 14 -28 1 -34 -1 -25 -11 6 -7 8 -22 4 -34 -8 -25 -50 -27 -64
-2 -9 16 -11 16 -25 -3 -8 -11 -18 -17 -22 -13 -4 4 10 23 31 43 32 29 47 35
83 35 38 0 43 2 37 19 -11 37 45 67 73 39z"/>
<path d="M920 1499 c0 -5 5 -7 10 -4 6 3 10 8 10 11 0 2 -4 4 -10 4 -5 0 -10
-5 -10 -11z"/>
<path d="M1006 1497 c3 -10 9 -15 12 -12 3 3 0 11 -7 18 -10 9 -11 8 -5 -6z"/>
<path d="M950 1490 c-9 -6 -10 -10 -3 -10 6 0 15 5 18 10 8 12 4 12 -15 0z"/>
<path d="M870 1460 c0 -5 9 -10 21 -10 11 0 17 5 14 10 -3 6 -13 10 -21 10 -8
0 -14 -4 -14 -10z"/>
<path d="M956 1463 c-12 -12 -6 -43 9 -43 8 0 15 9 15 19 0 21 -13 34 -24 24z"/>
<path d="M1034 1458 c-3 -4 4 -8 15 -8 12 0 21 4 21 8 0 5 -7 9 -15 9 -9 0
-18 -4 -21 -9z"/>
<path d="M900 1425 c-19 -23 -8 -26 20 -5 19 15 21 20 9 20 -9 0 -22 -7 -29
-15z"/>
<path d="M1018 1418 c12 -12 24 -19 28 -15 10 10 -16 37 -34 37 -13 0 -12 -4
6 -22z"/>
<path d="M927 1403 c-5 -7 1 -17 14 -23 20 -11 20 -12 2 -25 -10 -7 -15 -17
-11 -21 4 -4 14 -1 23 6 12 10 18 10 30 0 21 -17 30 -6 10 13 -19 20 -19 27 0
27 8 0 15 8 14 18 0 10 -3 12 -6 5 -6 -16 -60 -17 -65 -1 -3 9 -6 9 -11 1z"/>
<path d="M870 1374 c0 -8 10 -14 26 -14 28 0 25 15 -6 23 -13 3 -20 0 -20 -9z"/>
<path d="M1025 1370 c-3 -5 3 -10 14 -10 11 0 23 5 26 10 3 6 -3 10 -14 10
-11 0 -23 -4 -26 -10z"/>
<path d="M914 1271 c-90 -55 -47 -191 59 -191 104 0 136 150 42 195 -43 20
-63 19 -101 -4z m122 -26 c19 -18 10 -35 -18 -35 -20 0 -20 -1 -3 -20 18 -20
14 -57 -5 -45 -6 4 -10 3 -9 -2 4 -22 -2 -44 -10 -39 -5 4 -12 0 -15 -6 -5
-10 -7 -10 -12 -1 -3 7 -11 10 -17 8 -7 -3 -20 2 -30 9 -21 16 -32 76 -15 76
13 0 91 51 96 63 6 11 22 8 38 -8z"/>
<path d="M930 1033 c0 -3 7 -15 17 -25 15 -17 15 -18 0 -18 -11 0 -17 -8 -16
-22 1 -17 2 -19 6 -5 3 11 14 17 34 17 18 0 28 -4 24 -10 -3 -5 -1 -10 4 -10
17 0 13 20 -4 27 -14 5 -14 7 0 23 10 11 12 20 6 24 -5 4 -14 -1 -19 -11 -9
-16 -11 -16 -27 0 -18 18 -25 21 -25 10z"/>
<path d="M877 1004 c-12 -12 -8 -21 11 -19 9 0 18 5 20 10 4 12 -21 19 -31 9z"/>
<path d="M1025 1001 c-3 -6 -5 -11 -3 -12 36 -8 49 -7 46 3 -6 17 -34 22 -43
9z"/>
<path d="M890 956 c0 -3 7 -12 16 -20 23 -23 40 -19 19 4 -16 18 -35 26 -35
16z"/>
<path d="M1016 945 c-11 -8 -17 -17 -14 -20 3 -3 16 3 29 14 27 23 14 28 -15
6z"/>
<path d="M954 935 c-3 -8 -3 -19 1 -25 11 -18 25 -11 25 15 0 27 -17 34 -26
10z"/>
<path d="M875 910 c-3 -5 1 -10 9 -10 9 0 16 5 16 10 0 6 -4 10 -9 10 -6 0
-13 -4 -16 -10z"/>
<path d="M1035 910 c-3 -5 3 -10 15 -10 12 0 18 5 15 10 -3 6 -10 10 -15 10
-5 0 -12 -4 -15 -10z"/>
<path d="M946 879 c6 -11 31 -12 37 -1 3 4 -6 8 -19 8 -13 1 -21 -2 -18 -7z"/>
<path d="M1005 870 c-3 -5 -1 -10 4 -10 6 0 11 5 11 10 0 6 -2 10 -4 10 -3 0
-8 -4 -11 -10z"/>
<path d="M715 730 c-10 -17 20 -44 40 -36 9 3 15 14 13 23 -4 21 -43 30 -53
13z"/>
<path d="M834 649 c-9 -15 12 -33 30 -26 9 4 16 13 16 22 0 17 -35 21 -46 4z"/>
<path d="M1181 737 c-6 -6 -11 -19 -11 -30 0 -27 44 -19 48 9 3 25 -20 38 -37
21z"/>
<path d="M1060 646 c0 -8 5 -18 10 -21 13 -8 42 14 34 26 -9 15 -44 10 -44 -5z"/>
</g>
</svg>
